<svg width="100" height="40" viewBox="0 0 100 40" fill="none" xmlns="http://www.w3.org/2000/svg">
<path d="M30.1596 17.1672L30.2065 17.3079L36.3979 14.7751C37.8051 14.2122 38.4617 12.5705 37.8989 11.1634L37.805 11.0227L31.6137 13.5555C30.2535 14.1184 29.5499 15.76 30.1596 17.1672Z" fill="white"/>
<path d="M28.2834 13.4617L28.4241 13.6024L33.1615 8.86507C34.2403 7.78627 34.2403 6.05081 33.1615 4.97201L33.0207 4.8313L28.2834 9.52173C27.2046 10.6005 27.2046 12.3829 28.2834 13.4617Z" fill="white"/>
<path d="M60.4598 23.2178H56.6136V21.3885H60.366V19.7938H56.6136V18.1052H60.4598V16.5105H54.8782V24.8126H60.4598V23.2178Z" fill="white"/>
<path d="M60.3191 12.1016H56.8013V5.39429H54.9251V13.7433H60.3191V12.1016Z" fill="white"/>
<path d="M25.1878 10.7881L25.3285 10.835L27.9083 4.64364C28.4711 3.23652 27.8144 1.64177 26.4073 1.03201L26.2666 0.985107L23.6869 7.17648C23.124 8.58361 23.7807 10.1784 25.1878 10.7881Z" fill="white"/>
<path d="M9.80315 22.7489L9.75624 22.5613L3.56487 25.0941C2.15774 25.657 1.50108 27.2986 2.06394 28.7057L2.11084 28.7996L8.30221 26.3136C9.70934 25.7977 10.366 24.156 9.80315 22.7489Z" fill="white"/>
<path d="M11.6324 26.4076L11.4917 26.2668L6.75435 31.0511C5.67555 32.1299 5.67555 33.8653 6.75435 34.9441L6.89506 35.0849L11.6324 30.3475C12.7112 29.2687 12.7112 27.4864 11.6324 26.4076Z" fill="white"/>
<path d="M63.3209 5.39429H61.4448V13.7433H63.3209L63.3209 5.39429Z" fill="white"/>
<path d="M9.56862 11.6327C10.6474 12.7115 12.3829 12.7115 13.4617 11.6327L13.6024 11.492L8.86506 6.75466C7.78626 5.67586 6.0508 5.67586 4.972 6.75466L4.83128 6.89537L9.56862 11.6327Z" fill="white"/>
<path d="M9.47479 18.6683V18.4807H2.76748C1.26654 18.4807 0.000122145 19.7002 0.000122078 21.2481L0.00012207 21.4357H6.70744C8.25528 21.4357 9.47479 20.1693 9.47479 18.6683Z" fill="white"/>
<path d="M8.25525 16.4169C8.63048 16.4169 8.95881 16.3231 9.28714 16.2293C9.9438 15.9479 10.5067 15.4319 10.7881 14.7284L10.835 14.5876L4.64362 12.0079C3.23649 11.4451 1.64174 12.1017 1.03198 13.5088V13.6027L7.22335 16.1824C7.55168 16.3231 7.92692 16.4169 8.25525 16.4169Z" fill="white"/>
<path d="M78.1427 12.3361H81.8012L82.3172 13.7433H84.3341L81.0977 5.44119V5.39429H78.7994L75.563 13.7433H77.6268L78.1427 12.3361ZM79.972 7.12975L81.2853 10.7414H78.6587L79.972 7.12975Z" fill="white"/>
<path d="M97.608 12.1485H93.5273V10.3192H97.5141V8.72449H93.5273V7.03594H97.608V5.39429L91.6511 5.39429V13.7433H97.608V12.1485Z" fill="white"/>
<path d="M86.0695 13.7433H87.9456V7.03594H90.3847V5.39429H83.6774V7.03594H86.0695V13.7433Z" fill="white"/>
<path d="M88.5555 16.5105L85.5536 24.8126H87.4297L87.8988 23.4054H91.2759L91.7449 24.8126H93.6211L90.6192 16.5574V16.5105H88.5555ZM90.76 21.8107H88.3209L89.5404 18.1991L90.76 21.8107Z" fill="white"/>
<path d="M62.1014 16.5105V21.4824C62.1014 23.6869 63.3678 24.9533 65.6192 24.9533C67.8237 24.9533 69.0901 23.6869 69.0901 21.4824V16.5105H67.3547V21.4355C67.3547 22.6081 66.7449 23.3116 65.6192 23.3116C64.4935 23.3116 63.8837 22.655 63.8837 21.4355V16.5105H62.1014Z" fill="white"/>
<path d="M94.9344 16.5105V24.8126H99.9063V23.1709H96.623V16.5105H94.9344Z" fill="white"/>
<path d="M74.4842 24.8126V18.1521H76.7356V16.5105H70.4973V18.1521H72.7487V24.8126H74.4842Z" fill="white"/>
<path d="M84.4747 19.1844C84.4747 19.0905 84.4747 18.9967 84.4747 18.9029C84.4278 17.4958 83.2552 16.417 81.8481 16.5108H78.1896V24.8129H79.925V21.8579H81.0507L82.5517 24.8129H84.5216L82.7862 21.6703C83.6305 21.4358 84.4747 20.6853 84.4747 19.1844ZM81.5667 20.2632H79.8781V18.1056H81.5667C82.1764 18.1056 82.6455 18.5746 82.6455 19.1844C82.6455 19.7941 82.1764 20.2632 81.5667 20.2632Z" fill="white"/>
<path d="M67.2141 8.02093L69.4654 13.6964V13.7433H70.3097L72.5611 8.02093L72.5611 13.7433H74.4373V5.39429H71.8576L69.8876 10.5069L67.9176 5.44119H65.3379V13.7433H67.2141V8.02093Z" fill="white"/>
<path d="M14.7281 29.0808L14.5873 29.0339L12.0076 35.2253C11.4447 36.6324 12.1014 38.2272 13.5085 38.8369L13.6493 38.8838L16.229 32.6925C16.7918 31.2853 16.1352 29.6906 14.7281 29.0808Z" fill="white"/>
<path d="M61.351 35.2724C61.351 35.2255 61.351 35.1786 61.351 35.1317C61.3041 34.3812 60.6474 33.8184 59.897 33.8653H58.0677V38.1805H58.9589V36.6326H59.4748L60.4129 38.1805H61.4917L60.4129 36.5388C60.9758 36.3981 61.351 35.8822 61.351 35.2724ZM59.8031 35.8353H58.9589V34.7096H59.8031C59.8501 34.7096 59.85 34.7096 59.897 34.7096C60.1784 34.7565 60.4129 34.991 60.4129 35.3193C60.366 35.6007 60.0846 35.8353 59.8031 35.8353Z" fill="white"/>
<path d="M77.1577 33.8655V38.1807H78.0489V33.8655H77.1577Z" fill="white"/>
<path d="M72.0452 38.1807H72.9363V36.3983H75.0001V35.6009H72.9363V34.7098H75.047V33.8655H72.0452V38.1807Z" fill="white"/>
<path d="M11.1634 1.97031L11.0226 2.01721L13.5555 8.20858C13.8369 8.86524 14.3529 9.42809 15.0564 9.70952C15.3847 9.85023 15.76 9.94404 16.1352 9.94404C16.5105 9.94404 16.8388 9.85023 17.1671 9.70952L17.3547 9.66261L14.8219 3.47124C14.2121 2.06412 12.5705 1.40745 11.1634 1.97031Z" fill="white"/>
<path d="M63.2272 34.7098H64.4467V38.1807H65.3848V34.7098H66.6043V33.8655H63.2272V34.7098Z" fill="white"/>
<path d="M100 28.8933H46.7169V29.9252H100V28.8933Z" fill="white"/>
<path d="M80.441 38.1807H83.4429V37.3364H81.3791V36.3983H83.396V35.6009H81.3791V34.7098H83.4429V33.8655H80.441V38.1807Z" fill="white"/>
<path d="M52.8145 38.1807H55.8163V37.3364H53.7056V36.3983H55.7694V35.6009H53.7056V34.7098H55.8163V33.8655H52.8145V38.1807Z" fill="white"/>
<path d="M87.2891 33.8655H85.6943V38.1807H87.2891C88.5086 38.1807 89.4467 37.1957 89.4467 36.0231C89.4467 34.8505 88.4617 33.8655 87.2891 33.8655ZM87.2891 37.3833H86.6324V34.7098H87.2891C87.336 34.7098 87.3829 34.7098 87.4767 34.7098C88.1333 34.7567 88.6493 35.3664 88.6024 36.0231C88.6024 36.07 88.6024 36.1169 88.6024 36.1638C88.5555 36.8674 87.9457 37.3833 87.2891 37.3833Z" fill="white"/>
<path d="M69.6061 33.8655H68.715V38.1807H69.6061V33.8655Z" fill="white"/>
<path d="M29.1277 25.1412L29.0339 25.282L35.2721 27.9086C35.6005 28.0493 35.9757 28.0962 36.304 28.0962C37.4297 28.0962 38.4147 27.4396 38.8369 26.4077L38.8838 26.2669L32.6924 23.6872C31.3322 23.0774 29.7374 23.7341 29.1277 25.1412Z" fill="white"/>
<path d="M30.3472 28.2366C29.2684 27.1578 27.533 27.1578 26.4542 28.2366L26.3135 28.3773L31.0508 33.1146C32.1296 34.1934 33.8651 34.1934 34.9439 33.1146L35.0846 32.9739L30.3472 28.2366Z" fill="white"/>
<path d="M26.3603 31.6138C25.7975 30.2067 24.2027 29.55 22.7956 30.1129L22.608 30.1598L25.0939 36.3512C25.3753 37.0078 25.8913 37.5707 26.5948 37.8521C26.9232 37.9928 27.2984 38.0866 27.6736 38.0866C28.0489 38.0866 28.3772 37.9928 28.7055 37.8521L28.8932 37.8052L26.3603 31.6138Z" fill="white"/>
<path d="M18.668 0.000244141L18.4803 0.000244141V6.70756C18.4803 8.2085 19.6999 9.42801 21.2477 9.42801H21.4353L21.4353 2.72069C21.4353 1.21976 20.1689 0.000244136 18.668 0.000244141Z" fill="white"/>
<path d="M18.668 30.3943H18.4803V37.1016C18.4803 38.6494 19.6999 39.869 21.2477 39.869H21.4353V33.1616C21.4353 31.6607 20.1689 30.3943 18.668 30.3943Z" fill="white"/>
<path d="M30.441 21.2481V21.3888H37.1483C38.6961 21.3888 39.9157 20.1224 39.9157 18.6214V18.4807H33.2083C31.6605 18.4807 30.441 19.7471 30.441 21.2481Z" fill="white"/>
<path d="M49.8594 13.9305C51.3603 13.9774 52.7206 13.18 53.4241 11.8667L53.471 11.8198L51.8763 11.0693V11.1162C51.501 11.8667 50.7506 12.2888 49.9063 12.2888C49.8594 12.2888 49.8125 12.2888 49.8125 12.2888C48.4054 12.195 47.3266 11.0224 47.4204 9.61528C47.4204 9.56838 47.4204 9.56838 47.4204 9.52147C47.4204 8.11435 48.5461 6.98864 49.9063 6.94174C50.7506 6.94174 51.501 7.41078 51.8763 8.11435V8.16125L53.471 7.36388V7.31697C52.7675 6.00365 51.3603 5.20628 49.9063 5.25318C49.8125 5.25318 49.7187 5.25318 49.6249 5.25318C47.2797 5.30009 45.4504 7.22316 45.4973 9.56838C45.4973 9.66219 45.4973 9.756 45.4973 9.84981C45.5911 12.195 47.5611 14.0243 49.8594 13.9305Z" fill="white"/>
<path d="M47.7018 19.4186L51.3135 24.8126H52.9551V16.5105H51.2197V21.7169L47.7487 16.5105H46.0133L45.9664 24.8126H47.7018V19.4186Z" fill="white"/>
<path d="M48.9683 34.6629C49.3435 34.6629 49.7187 34.8505 49.9064 35.1788L50.0002 35.3195L50.7975 34.8974L50.7037 34.7567C50.3285 34.1469 49.6718 33.8186 48.9683 33.8186C47.7488 33.8186 46.7169 34.8036 46.7169 36.07C46.7169 37.3364 47.7019 38.3214 48.9683 38.3214C49.6718 38.3214 50.3285 37.9931 50.7037 37.3833L50.7975 37.2895L50.0002 36.8674L49.9064 37.0081C49.7187 37.3364 49.3435 37.524 48.9683 37.524C48.3585 37.4302 47.8426 36.9612 47.7957 36.3514C47.6549 35.5072 48.2178 34.8036 48.9683 34.6629Z" fill="white"/>
</svg>
